<svg width="126" height="20" viewBox="0 0 126 20" fill="none" xmlns="http://www.w3.org/2000/svg">
    <path d="M8.79442 3.51523C7.90609 3.51523 7.11083 3.67597 6.40863 3.99746C5.71489 4.31895 5.1269 4.78426 4.64467 5.3934C4.16244 5.99408 3.79442 6.72589 3.54061 7.58883C3.2868 8.44332 3.1599 9.40778 3.1599 10.4822C3.1599 11.9205 3.36294 13.1599 3.76904 14.2005C4.17513 15.2327 4.79272 16.0279 5.62183 16.5863C6.45093 17.1362 7.5 17.4112 8.76904 17.4112C9.55584 17.4112 10.3215 17.335 11.066 17.1827C11.8105 17.0305 12.5804 16.8232 13.3756 16.5609V19.1497C12.6227 19.4459 11.8613 19.6616 11.0914 19.797C10.3215 19.9323 9.43316 20 8.4264 20C6.5313 20 4.9577 19.6066 3.70558 18.8198C2.46193 18.033 1.5313 16.9247 0.913706 15.4949C0.304569 14.0651 0 12.39 0 10.4695C0 9.06514 0.194585 7.77919 0.583756 6.61167C0.972927 5.44416 1.53976 4.43739 2.28426 3.59137C3.02876 2.73689 3.9467 2.08122 5.03807 1.62437C6.1379 1.15905 7.39425 0.926396 8.80711 0.926396C9.73773 0.926396 10.6514 1.03215 11.5482 1.24365C12.4535 1.4467 13.291 1.73858 14.0609 2.11929L12.9949 4.63198C12.3519 4.32741 11.6794 4.06514 10.9772 3.84518C10.275 3.62521 9.54738 3.51523 8.79442 3.51523Z"
          fill="#FFC300"/>
    <path d="M19.5183 0V4.96193C19.5183 5.478 19.5014 5.98139 19.4675 6.47208C19.4421 6.96277 19.4125 7.34349 19.3787 7.61421H19.5437C19.8398 7.12352 20.2036 6.72166 20.635 6.40863C21.0665 6.08714 21.5487 5.84602 22.0817 5.68528C22.6232 5.52453 23.1985 5.44416 23.8076 5.44416C24.8821 5.44416 25.7958 5.62606 26.5487 5.98985C27.3017 6.34518 27.877 6.89932 28.2746 7.65228C28.6807 8.40524 28.8838 9.3824 28.8838 10.5838V19.7462H25.9015V11.1421C25.9015 10.0508 25.6773 9.23435 25.2289 8.69289C24.7805 8.14298 24.0868 7.86802 23.1477 7.86802C22.2425 7.86802 21.5233 8.05838 20.9904 8.43909C20.4658 8.81134 20.0893 9.36548 19.8609 10.1015C19.6325 10.8291 19.5183 11.7174 19.5183 12.7665V19.7462H16.536V0H19.5183Z"
          fill="#FFC300"/>
    <path d="M35.5213 5.69797V19.7462H32.5391V5.69797H35.5213ZM34.0492 0.317259C34.5061 0.317259 34.8995 0.439932 35.2294 0.685279C35.5679 0.930626 35.7371 1.35364 35.7371 1.95431C35.7371 2.54653 35.5679 2.96954 35.2294 3.22335C34.8995 3.4687 34.5061 3.59137 34.0492 3.59137C33.5755 3.59137 33.1736 3.4687 32.8437 3.22335C32.5222 2.96954 32.3614 2.54653 32.3614 1.95431C32.3614 1.35364 32.5222 0.930626 32.8437 0.685279C33.1736 0.439932 33.5755 0.317259 34.0492 0.317259Z"
          fill="#FFC300"/>
    <path d="M46.6005 5.43147C48.1826 5.43147 49.4135 5.84179 50.2934 6.66244C51.1817 7.47462 51.6259 8.78173 51.6259 10.5838V19.7462H48.6437V11.1421C48.6437 10.0508 48.4195 9.23435 47.9711 8.69289C47.5227 8.14298 46.8289 7.86802 45.8898 7.86802C44.5278 7.86802 43.5802 8.2868 43.0472 9.12436C42.5227 9.96193 42.2604 11.176 42.2604 12.7665V19.7462H39.2782V5.69797H41.6005L42.0193 7.60152H42.1843C42.4888 7.11083 42.8653 6.70897 43.3137 6.39594C43.7706 6.07445 44.2782 5.83333 44.8365 5.67259C45.4034 5.51184 45.9914 5.43147 46.6005 5.43147Z"
          fill="#FFC300"/>
    <path d="M60.7888 5.43147C62.5655 5.43147 63.9064 5.82487 64.8117 6.61167C65.7254 7.39848 66.1822 8.62521 66.1822 10.2919V19.7462H64.0629L63.4919 17.7538H63.3904C62.9927 18.2614 62.5824 18.6802 62.1594 19.0102C61.7364 19.3401 61.2457 19.5854 60.6873 19.7462C60.1374 19.9154 59.4648 20 58.6695 20C57.832 20 57.0832 19.8477 56.4234 19.5431C55.7635 19.2301 55.2431 18.7563 54.8624 18.1218C54.4817 17.4873 54.2914 16.6836 54.2914 15.7107C54.2914 14.264 54.8286 13.1768 55.903 12.4492C56.986 11.7217 58.6188 11.3198 60.8015 11.2437L63.2381 11.1548V10.4188C63.2381 9.44585 63.0096 8.75212 62.5528 8.33756C62.1044 7.92301 61.4699 7.71574 60.6492 7.71574C59.947 7.71574 59.266 7.81726 58.6061 8.0203C57.9462 8.22335 57.3032 8.47293 56.6772 8.76904L55.7127 6.66244C56.398 6.29865 57.1763 6.00254 58.0477 5.77411C58.9276 5.54569 59.8413 5.43147 60.7888 5.43147ZM63.2254 13.033L61.4107 13.0964C59.9217 13.1472 58.8768 13.401 58.2761 13.8579C57.6755 14.3147 57.3751 14.9408 57.3751 15.736C57.3751 16.4298 57.5824 16.9374 57.997 17.2589C58.4115 17.5719 58.9572 17.7284 59.634 17.7284C60.6662 17.7284 61.5206 17.4365 62.1975 16.8528C62.8827 16.2606 63.2254 15.3934 63.2254 14.2513V13.033Z"
          fill="#FFC300"/>
    <path d="M85.2434 19.6187H82.756L72.6418 4.03497H72.5403C72.5657 4.44952 72.5953 4.9233 72.6291 5.45629C72.663 5.98083 72.6884 6.54343 72.7053 7.14411C72.7307 7.73633 72.7434 8.34123 72.7434 8.95883V19.6187H70.7383V1.06543H73.2129L83.289 16.5984H83.3779C83.361 16.3023 83.3398 15.8835 83.3144 15.3421C83.289 14.7922 83.2637 14.2042 83.2383 13.5781C83.2214 12.9436 83.2129 12.3556 83.2129 11.8142V1.06543H85.2434V19.6187Z"
          fill="#F5F5F5"/>
    <path d="M94.5652 5.45629C95.7496 5.45629 96.7648 5.71856 97.6109 6.24309C98.4569 6.76763 99.1041 7.50367 99.5525 8.45122C100.001 9.3903 100.225 10.4901 100.225 11.7507V13.0578H90.6185C90.6439 14.6906 91.05 15.9343 91.8368 16.7888C92.6236 17.6433 93.7319 18.0705 95.1616 18.0705C96.0415 18.0705 96.8198 17.9901 97.4967 17.8294C98.1735 17.6686 98.8757 17.4318 99.6033 17.1187V18.9715C98.9011 19.2845 98.2031 19.513 97.5093 19.6568C96.8241 19.8006 96.0119 19.8725 95.0728 19.8725C93.7361 19.8725 92.5686 19.6018 91.5703 19.0604C90.5804 18.5104 89.8105 17.7067 89.2606 16.6492C88.7107 15.5917 88.4357 14.2972 88.4357 12.7659C88.4357 11.2685 88.6853 9.97406 89.1845 8.88269C89.6921 7.78286 90.4027 6.93683 91.3165 6.34462C92.2386 5.7524 93.3215 5.45629 94.5652 5.45629ZM94.5398 7.18218C93.4146 7.18218 92.5178 7.5502 91.8494 8.28624C91.1811 9.02228 90.7835 10.0502 90.6566 11.37H98.017C98.0085 10.5409 97.8774 9.81331 97.6236 9.18726C97.3782 8.55274 97.0017 8.06205 96.4941 7.71518C95.9865 7.35985 95.3351 7.18218 94.5398 7.18218Z"
          fill="#F5F5F5"/>
    <path d="M108.487 5.48167C110.145 5.48167 111.376 5.85392 112.18 6.59842C112.984 7.34293 113.385 8.53159 113.385 10.1644V19.6187H111.85L111.444 17.5629H111.342C110.953 18.0705 110.547 18.4977 110.124 18.8446C109.701 19.183 109.21 19.4411 108.652 19.6187C108.102 19.7879 107.425 19.8725 106.622 19.8725C105.776 19.8725 105.023 19.7245 104.363 19.4284C103.711 19.1323 103.195 18.6839 102.814 18.0832C102.442 17.4825 102.256 16.7211 102.256 15.7989C102.256 14.4115 102.806 13.3455 103.906 12.601C105.006 11.8565 106.681 11.4504 108.931 11.3827L111.33 11.2812V10.4309C111.33 9.22956 111.072 8.38776 110.556 7.90553C110.039 7.4233 109.312 7.18218 108.373 7.18218C107.645 7.18218 106.951 7.28793 106.292 7.49944C105.632 7.71095 105.006 7.96052 104.413 8.24817L103.766 6.64919C104.392 6.3277 105.111 6.05274 105.924 5.82431C106.736 5.59589 107.59 5.48167 108.487 5.48167ZM111.304 12.7659L109.185 12.8548C107.451 12.9225 106.228 13.2059 105.517 13.705C104.807 14.2042 104.451 14.9106 104.451 15.8243C104.451 16.6196 104.693 17.2076 105.175 17.5883C105.657 17.969 106.296 18.1593 107.091 18.1593C108.326 18.1593 109.337 17.8167 110.124 17.1314C110.911 16.4461 111.304 15.4182 111.304 14.0477V12.7659Z"
          fill="#F5F5F5"/>
    <path d="M123.526 5.45629C123.805 5.45629 124.097 5.47321 124.401 5.50705C124.706 5.53243 124.977 5.57051 125.213 5.62127L124.947 7.57558C124.718 7.51636 124.465 7.46983 124.185 7.43599C123.906 7.40215 123.644 7.38523 123.399 7.38523C122.84 7.38523 122.312 7.49944 121.812 7.72787C121.322 7.94783 120.89 8.26932 120.518 8.69233C120.146 9.10688 119.854 9.61027 119.642 10.2025C119.431 10.7862 119.325 11.4377 119.325 12.1568V19.6187H117.206V5.7101H118.957L119.185 8.27355H119.274C119.562 7.75748 119.909 7.28793 120.315 6.86492C120.721 6.43345 121.191 6.09081 121.724 5.837C122.265 5.5832 122.866 5.45629 123.526 5.45629Z"
          fill="#F5F5F5"/>
</svg>
